<svg width="48" height="48" viewBox="0 0 48 48" fill="none" xmlns="http://www.w3.org/2000/svg">
    <circle cx="24" cy="24" r="24" fill="#FF3F3A"/>
    <path fill-rule="evenodd"
          clip-rule="evenodd"
          d="M20.20711 29.2071C19.81658 29.5976 19.18342 29.5976 18.79289 29.2071L14.29289 24.7071C13.90237 24.3166 13.90237 23.6834 14.29289 23.2929L18.79289 18.7929C19.18342 18.4024 19.81658 18.4024 20.20711 18.7929C20.59763 19.1834 20.59763 19.8166 20.20711 20.2071L17.41421 23L31 23C31.5523 23 32 23.4477 32 24C32 24.5523 31.5523 25 31 25L17.41421 25L20.20711 27.7929C20.59763 28.1834 20.59763 28.8166 20.20711 29.2071Z"
          fill="white"/>
</svg>


