<svg width="1920" height="1208" viewBox="0 0 1920 1208" fill="none" xmlns="http://www.w3.org/2000/svg">
<rect opacity="0.2" width="1937.81" height="1208" fill="url(#paint0_linear_1209_991)"/>
<g opacity="0.8" clip-path="url(#clip0_1209_991)">
<path d="M121.829 845.478C119.68 845.478 118.068 844.304 118.068 842.739C118.068 841.174 119.68 840 121.829 840C123.978 840 125.59 841.174 125.59 842.739C125.59 844.304 123.799 845.478 121.829 845.478Z" fill="white"/>
<path d="M121.829 868.826C119.68 868.826 118.068 867.652 118.068 866.087C118.068 864.522 119.68 863.348 121.829 863.348C123.978 863.348 125.59 864.522 125.59 866.087C125.59 867.522 123.799 868.826 121.829 868.826Z" fill="white"/>
<path d="M121.829 892.043C119.68 892.043 118.068 890.87 118.068 889.304C118.068 887.739 119.68 886.565 121.829 886.565C123.978 886.565 125.59 887.739 125.59 889.304C125.59 890.87 123.799 892.043 121.829 892.043Z" fill="white"/>
<path d="M121.829 915.391C119.68 915.391 118.068 914.217 118.068 912.652C118.068 911.087 119.68 909.913 121.829 909.913C123.978 909.913 125.59 911.087 125.59 912.652C125.59 914.217 123.799 915.391 121.829 915.391Z" fill="white"/>
<path d="M121.829 938.739C119.68 938.739 118.068 937.565 118.068 936C118.068 934.435 119.68 933.261 121.829 933.261C123.978 933.261 125.59 934.435 125.59 936C125.59 937.435 123.799 938.739 121.829 938.739Z" fill="white"/>
<path d="M121.829 962.087C119.68 962.087 118.068 960.913 118.068 959.348C118.068 957.783 119.68 956.609 121.829 956.609C123.978 956.609 125.59 957.783 125.59 959.348C125.59 960.913 123.799 962.087 121.829 962.087Z" fill="white"/>
<path d="M121.829 985.304C119.68 985.304 118.068 984.13 118.068 982.565C118.068 981 119.68 979.826 121.829 979.826C123.978 979.826 125.59 981 125.59 982.565C125.59 984.13 123.799 985.304 121.829 985.304Z" fill="white"/>
<path d="M121.829 1008.65C119.68 1008.65 118.068 1007.48 118.068 1005.91C118.068 1004.35 119.68 1003.17 121.829 1003.17C123.978 1003.17 125.59 1004.35 125.59 1005.91C125.59 1007.48 123.799 1008.65 121.829 1008.65Z" fill="white"/>
<path d="M121.829 1032C119.68 1032 118.068 1030.83 118.068 1029.26C118.068 1027.7 119.68 1026.52 121.829 1026.52C123.978 1026.52 125.59 1027.7 125.59 1029.26C125.59 1030.7 123.799 1032 121.829 1032Z" fill="white"/>
<path d="M95.1439 845.478C92.9947 845.478 91.3829 844.304 91.3829 842.739C91.3829 841.174 92.9947 840 95.1439 840C97.293 840 98.9049 841.174 98.9049 842.739C98.9049 844.304 97.293 845.478 95.1439 845.478Z" fill="white"/>
<path d="M95.1439 868.826C92.9947 868.826 91.3829 867.652 91.3829 866.087C91.3829 864.522 92.9947 863.348 95.1439 863.348C97.293 863.348 98.9049 864.522 98.9049 866.087C98.9049 867.522 97.293 868.826 95.1439 868.826Z" fill="white"/>
<path d="M95.1439 892.043C92.9947 892.043 91.3829 890.87 91.3829 889.304C91.3829 887.739 92.9947 886.565 95.1439 886.565C97.293 886.565 98.9049 887.739 98.9049 889.304C98.9049 890.87 97.293 892.043 95.1439 892.043Z" fill="white"/>
<path d="M95.1439 915.391C92.9947 915.391 91.3829 914.217 91.3829 912.652C91.3829 911.087 92.9947 909.913 95.1439 909.913C97.293 909.913 98.9049 911.087 98.9049 912.652C98.9049 914.217 97.293 915.391 95.1439 915.391Z" fill="white"/>
<path d="M95.1439 938.739C92.9947 938.739 91.3829 937.565 91.3829 936C91.3829 934.435 92.9947 933.261 95.1439 933.261C97.293 933.261 98.9049 934.435 98.9049 936C98.9049 937.435 97.293 938.739 95.1439 938.739Z" fill="white"/>
<path d="M95.1439 962.087C92.9947 962.087 91.3829 960.913 91.3829 959.348C91.3829 957.783 92.9947 956.609 95.1439 956.609C97.293 956.609 98.9049 957.783 98.9049 959.348C98.9049 960.913 97.293 962.087 95.1439 962.087Z" fill="white"/>
<path d="M95.1439 985.304C92.9947 985.304 91.3829 984.13 91.3829 982.565C91.3829 981 92.9947 979.826 95.1439 979.826C97.293 979.826 98.9049 981 98.9049 982.565C98.9049 984.13 97.293 985.304 95.1439 985.304Z" fill="white"/>
<path d="M95.1439 1008.65C92.9947 1008.65 91.3829 1007.48 91.3829 1005.91C91.3829 1004.35 92.9947 1003.17 95.1439 1003.17C97.293 1003.17 98.9049 1004.35 98.9049 1005.91C98.9049 1007.48 97.293 1008.65 95.1439 1008.65Z" fill="white"/>
<path d="M95.1439 1032C92.9947 1032 91.3829 1030.83 91.3829 1029.26C91.3829 1027.7 92.9947 1026.52 95.1439 1026.52C97.293 1026.52 98.9049 1027.7 98.9049 1029.26C98.9049 1030.7 97.293 1032 95.1439 1032Z" fill="white"/>
<path d="M175.02 845.478C172.871 845.478 171.259 844.304 171.259 842.739C171.259 841.174 172.871 840 175.02 840C177.17 840 178.781 841.174 178.781 842.739C178.781 844.304 177.17 845.478 175.02 845.478Z" fill="white"/>
<path d="M175.02 868.826C172.871 868.826 171.259 867.652 171.259 866.087C171.259 864.522 172.871 863.348 175.02 863.348C177.17 863.348 178.781 864.522 178.781 866.087C178.781 867.522 177.17 868.826 175.02 868.826Z" fill="white"/>
<path d="M175.02 892.043C172.871 892.043 171.259 890.87 171.259 889.304C171.259 887.739 172.871 886.565 175.02 886.565C177.17 886.565 178.781 887.87 178.781 889.304C178.781 890.87 177.17 892.043 175.02 892.043Z" fill="white"/>
<path d="M175.02 915.391C172.871 915.391 171.259 914.217 171.259 912.652C171.259 911.087 172.871 909.913 175.02 909.913C177.17 909.913 178.781 911.217 178.781 912.652C178.781 914.087 177.17 915.391 175.02 915.391Z" fill="white"/>
<path d="M175.02 938.739C172.871 938.739 171.259 937.565 171.259 936C171.259 934.435 172.871 933.261 175.02 933.261C177.17 933.261 178.781 934.435 178.781 936C178.781 937.435 177.17 938.739 175.02 938.739Z" fill="white"/>
<path d="M175.02 962.087C172.871 962.087 171.259 960.913 171.259 959.348C171.259 957.783 172.871 956.609 175.02 956.609C177.17 956.609 178.781 957.783 178.781 959.348C178.781 960.913 177.17 962.087 175.02 962.087Z" fill="white"/>
<path d="M175.02 985.304C172.871 985.304 171.259 984.13 171.259 982.565C171.259 981 172.871 979.826 175.02 979.826C177.17 979.826 178.781 981 178.781 982.565C178.781 984.13 177.17 985.304 175.02 985.304Z" fill="white"/>
<path d="M175.02 1008.65C172.871 1008.65 171.259 1007.48 171.259 1005.91C171.259 1004.35 172.871 1003.17 175.02 1003.17C177.17 1003.17 178.781 1004.35 178.781 1005.91C178.781 1007.48 177.17 1008.65 175.02 1008.65Z" fill="white"/>
<path d="M175.02 1032C172.871 1032 171.259 1030.83 171.259 1029.26C171.259 1027.7 172.871 1026.52 175.02 1026.52C177.17 1026.52 178.781 1027.7 178.781 1029.26C178.781 1030.7 177.17 1032 175.02 1032Z" fill="white"/>
<path d="M148.335 845.478C146.186 845.478 144.574 844.304 144.574 842.739C144.574 841.174 146.365 840 148.335 840C150.484 840 152.096 841.174 152.096 842.739C152.096 844.304 150.484 845.478 148.335 845.478Z" fill="white"/>
<path d="M148.335 868.826C146.186 868.826 144.574 867.652 144.574 866.087C144.574 864.522 146.186 863.348 148.335 863.348C150.484 863.348 152.096 864.522 152.096 866.087C152.096 867.522 150.484 868.826 148.335 868.826Z" fill="white"/>
<path d="M148.335 892.043C146.186 892.043 144.574 890.87 144.574 889.304C144.574 887.739 146.186 886.565 148.335 886.565C150.484 886.565 152.096 887.739 152.096 889.304C152.096 890.87 150.484 892.043 148.335 892.043Z" fill="white"/>
<path d="M148.335 915.391C146.186 915.391 144.574 914.217 144.574 912.652C144.574 911.087 146.186 909.913 148.335 909.913C150.484 909.913 152.096 911.087 152.096 912.652C152.096 914.217 150.484 915.391 148.335 915.391Z" fill="white"/>
<path d="M148.335 938.739C146.186 938.739 144.574 937.565 144.574 936C144.574 934.435 146.186 933.261 148.335 933.261C150.484 933.261 152.096 934.435 152.096 936C152.096 937.435 150.484 938.739 148.335 938.739Z" fill="white"/>
<path d="M148.335 962.087C146.186 962.087 144.574 960.913 144.574 959.348C144.574 957.783 146.186 956.609 148.335 956.609C150.484 956.609 152.096 957.783 152.096 959.348C152.096 960.913 150.484 962.087 148.335 962.087Z" fill="white"/>
<path d="M148.335 985.304C146.186 985.304 144.574 984.13 144.574 982.565C144.574 981 146.186 979.826 148.335 979.826C150.484 979.826 152.096 981 152.096 982.565C152.096 984.13 150.484 985.304 148.335 985.304Z" fill="white"/>
<path d="M148.335 1008.65C146.186 1008.65 144.574 1007.48 144.574 1005.91C144.574 1004.35 146.186 1003.17 148.335 1003.17C150.484 1003.17 152.096 1004.35 152.096 1005.91C152.096 1007.48 150.484 1008.65 148.335 1008.65Z" fill="white"/>
<path d="M148.335 1032C146.186 1032 144.574 1030.83 144.574 1029.26C144.574 1027.7 146.186 1026.52 148.335 1026.52C150.484 1026.52 152.096 1027.7 152.096 1029.26C152.096 1030.7 150.484 1032 148.335 1032Z" fill="white"/>
<path d="M68.6374 845.478C66.4883 845.478 64.8764 844.304 64.8764 842.739C64.8764 841.174 66.4883 840 68.6374 840C70.7866 840 72.3984 841.174 72.3984 842.739C72.3984 844.304 70.6075 845.478 68.6374 845.478Z" fill="white"/>
<path d="M68.6374 868.826C66.4883 868.826 64.8764 867.652 64.8764 866.087C64.8764 864.522 66.4883 863.348 68.6374 863.348C70.7866 863.348 72.3984 864.522 72.3984 866.087C72.3984 867.522 70.6075 868.826 68.6374 868.826Z" fill="white"/>
<path d="M68.6374 892.043C66.4883 892.043 64.8764 890.87 64.8764 889.304C64.8764 887.739 66.4883 886.565 68.6374 886.565C70.7866 886.565 72.3984 887.739 72.3984 889.304C72.3984 890.87 70.6075 892.043 68.6374 892.043Z" fill="white"/>
<path d="M68.6374 915.391C66.4883 915.391 64.8764 914.217 64.8764 912.652C64.8764 911.087 66.4883 909.913 68.6374 909.913C70.7866 909.913 72.3984 911.087 72.3984 912.652C72.3984 914.217 70.6075 915.391 68.6374 915.391Z" fill="white"/>
<path d="M68.6374 938.739C66.4883 938.739 64.8764 937.565 64.8764 936C64.8764 934.435 66.4883 933.261 68.6374 933.261C70.7866 933.261 72.3984 934.435 72.3984 936C72.3984 937.435 70.6075 938.739 68.6374 938.739Z" fill="white"/>
<path d="M68.6374 962.087C66.4883 962.087 64.8764 960.913 64.8764 959.348C64.8764 957.783 66.4883 956.609 68.6374 956.609C70.7866 956.609 72.3984 957.783 72.3984 959.348C72.3984 960.913 70.6075 962.087 68.6374 962.087Z" fill="white"/>
<path d="M68.6374 985.304C66.4883 985.304 64.8764 984.13 64.8764 982.565C64.8764 981 66.4883 979.826 68.6374 979.826C70.7866 979.826 72.3984 981 72.3984 982.565C72.3984 984.13 70.6075 985.304 68.6374 985.304Z" fill="white"/>
<path d="M68.6374 1008.65C66.4883 1008.65 64.8764 1007.48 64.8764 1005.91C64.8764 1004.35 66.4883 1003.17 68.6374 1003.17C70.7866 1003.17 72.3984 1004.35 72.3984 1005.91C72.3984 1007.48 70.6075 1008.65 68.6374 1008.65Z" fill="white"/>
<path d="M68.6374 1032C66.4883 1032 64.8764 1030.83 64.8764 1029.26C64.8764 1027.7 66.4883 1026.52 68.6374 1026.52C70.7866 1026.52 72.3984 1027.7 72.3984 1029.26C72.3984 1030.7 70.6075 1032 68.6374 1032Z" fill="white"/>
<path d="M41.9524 845.478C39.8032 845.478 38.1914 844.304 38.1914 842.739C38.1914 841.174 39.8032 840 41.9524 840C44.1015 840 45.7134 841.174 45.7134 842.739C45.7134 844.304 44.1015 845.478 41.9524 845.478Z" fill="white"/>
<path d="M41.9524 868.826C39.8032 868.826 38.1914 867.652 38.1914 866.087C38.1914 864.522 39.8032 863.348 41.9524 863.348C44.1015 863.348 45.7134 864.522 45.7134 866.087C45.7134 867.522 44.1015 868.826 41.9524 868.826Z" fill="white"/>
<path d="M41.9524 892.043C39.8032 892.043 38.1914 890.87 38.1914 889.304C38.1914 887.739 39.8032 886.565 41.9524 886.565C44.1015 886.565 45.7134 887.739 45.7134 889.304C45.7134 890.87 44.1015 892.043 41.9524 892.043Z" fill="white"/>
<path d="M38.1914 912.652C38.1914 914.165 39.8752 915.391 41.9524 915.391C44.0295 915.391 45.7134 914.165 45.7134 912.652C45.7134 911.139 44.0295 909.913 41.9524 909.913C39.8752 909.913 38.1914 911.139 38.1914 912.652Z" fill="white"/>
<path d="M41.9524 938.739C39.8032 938.739 38.1914 937.565 38.1914 936C38.1914 934.435 39.8032 933.261 41.9524 933.261C44.1015 933.261 45.7134 934.435 45.7134 936C45.7134 937.435 44.1015 938.739 41.9524 938.739Z" fill="white"/>
<path d="M41.9524 962.087C39.8032 962.087 38.1914 960.913 38.1914 959.348C38.1914 957.783 39.8032 956.609 41.9524 956.609C44.1015 956.609 45.7134 957.783 45.7134 959.348C45.7134 960.913 44.1015 962.087 41.9524 962.087Z" fill="white"/>
<path d="M41.9524 985.304C39.8032 985.304 38.1914 984.13 38.1914 982.565C38.1914 981 39.8032 979.826 41.9524 979.826C44.1015 979.826 45.7134 981 45.7134 982.565C45.7134 984.13 44.1015 985.304 41.9524 985.304Z" fill="white"/>
<path d="M38.1914 1005.91C38.1914 1007.43 39.8752 1008.65 41.9524 1008.65C44.0295 1008.65 45.7134 1007.43 45.7134 1005.91C45.7134 1004.4 44.0295 1003.17 41.9524 1003.17C39.8752 1003.17 38.1914 1004.4 38.1914 1005.91Z" fill="white"/>
<path d="M41.9524 1032C39.8032 1032 38.1914 1030.83 38.1914 1029.26C38.1914 1027.7 39.8032 1026.52 41.9524 1026.52C44.1015 1026.52 45.7134 1027.7 45.7134 1029.26C45.7134 1030.7 44.1015 1032 41.9524 1032Z" fill="white"/>
<path d="M15.2671 845.478C13.1179 845.478 11.5061 844.304 11.5061 842.739C11.5061 841.174 13.1179 840 15.2671 840C17.4162 840 19.0281 841.174 19.0281 842.739C19.0281 844.304 17.4162 845.478 15.2671 845.478Z" fill="white"/>
<path d="M15.2671 868.826C13.1179 868.826 11.5061 867.652 11.5061 866.087C11.5061 864.522 13.1179 863.348 15.2671 863.348C17.4162 863.348 19.0281 864.522 19.0281 866.087C19.0281 867.522 17.4162 868.826 15.2671 868.826Z" fill="white"/>
<path d="M15.2671 892.043C13.1179 892.043 11.5061 890.87 11.5061 889.304C11.5061 887.739 13.1179 886.565 15.2671 886.565C17.4162 886.565 19.0281 887.739 19.0281 889.304C19.0281 890.87 17.4162 892.043 15.2671 892.043Z" fill="white"/>
<path d="M15.2671 915.391C13.1179 915.391 11.5061 914.217 11.5061 912.652C11.5061 911.087 13.1179 909.913 15.2671 909.913C17.4162 909.913 19.0281 911.087 19.0281 912.652C19.0281 914.217 17.4162 915.391 15.2671 915.391Z" fill="white"/>
<path d="M15.2671 938.739C13.1179 938.739 11.5061 937.565 11.5061 936C11.5061 934.435 13.1179 933.261 15.2671 933.261C17.4162 933.261 19.0281 934.435 19.0281 936C19.0281 937.435 17.4162 938.739 15.2671 938.739Z" fill="white"/>
<path d="M15.2671 962.087C13.1179 962.087 11.5061 960.913 11.5061 959.348C11.5061 957.783 13.1179 956.609 15.2671 956.609C17.4162 956.609 19.0281 957.783 19.0281 959.348C19.0281 960.913 17.4162 962.087 15.2671 962.087Z" fill="white"/>
<path d="M15.2671 985.304C13.1179 985.304 11.5061 984.13 11.5061 982.565C11.5061 981 13.1179 979.826 15.2671 979.826C17.4162 979.826 19.0281 981 19.0281 982.565C19.0281 984.13 17.4162 985.304 15.2671 985.304Z" fill="white"/>
<path d="M15.2671 1008.65C13.1179 1008.65 11.5061 1007.48 11.5061 1005.91C11.5061 1004.35 13.1179 1003.17 15.2671 1003.17C17.4162 1003.17 19.0281 1004.35 19.0281 1005.91C19.0281 1007.48 17.4162 1008.65 15.2671 1008.65Z" fill="white"/>
<path d="M15.2671 1032C13.1179 1032 11.5061 1030.83 11.5061 1029.26C11.5061 1027.7 13.1179 1026.52 15.2671 1026.52C17.4162 1026.52 19.0281 1027.7 19.0281 1029.26C19.0281 1030.7 17.4162 1032 15.2671 1032Z" fill="white"/>
</g>
<g opacity="0.2" clip-path="url(#clip1_1209_991)">
<path d="M1829.42 124C1750.13 124 1686 200.796 1686 295.731C1686 390.431 1750.13 467.462 1829.42 467.462C1908.5 467.462 1972.83 390.666 1972.83 295.731C1972.64 200.796 1908.5 124 1829.42 124ZM1829.42 456.391C1755.25 456.391 1695.25 384.541 1695.25 295.731C1695.25 206.921 1755.25 135.072 1829.42 135.072C1903.58 135.072 1963.59 206.921 1963.59 295.731C1963.59 384.306 1903.39 456.391 1829.42 456.391Z" fill="white"/>
<path d="M1829.42 160.985C1767.45 160.985 1717.08 221.291 1717.08 295.496C1717.08 369.7 1767.45 430.007 1829.42 430.007C1891.39 430.007 1941.75 369.936 1941.75 295.731C1941.75 221.291 1891.39 160.985 1829.42 160.985ZM1829.42 409.512C1776.89 409.512 1734.2 358.393 1734.2 295.496C1734.2 232.598 1776.89 181.479 1829.42 181.479C1881.94 181.479 1924.63 232.598 1924.63 295.496C1924.63 358.393 1881.94 409.512 1829.42 409.512Z" fill="white"/>
<path d="M1829.42 220.113C1794.6 220.113 1766.27 254.035 1766.27 295.731C1766.27 337.427 1794.4 371.349 1829.42 371.349C1864.24 371.349 1892.57 337.427 1892.57 295.731C1892.37 254.035 1864.24 220.113 1829.42 220.113ZM1829.42 336.249C1810.73 336.249 1795.58 318.11 1795.58 295.731C1795.58 273.352 1810.73 255.213 1829.42 255.213C1848.11 255.213 1863.25 273.352 1863.25 295.731C1863.25 318.11 1848.11 336.249 1829.42 336.249Z" fill="white"/>
</g>
<defs>
<linearGradient id="paint0_linear_1209_991" x1="-7.21892e-05" y1="1208" x2="1492.85" y2="-410.437" gradientUnits="userSpaceOnUse">
<stop stop-color="#FF3F3A"/>
<stop offset="1" stop-color="#F75E05"/>
</linearGradient>
<clipPath id="clip0_1209_991">
<rect width="192" height="193.781" fill="white" transform="translate(178.781 840) rotate(90)"/>
</clipPath>
<clipPath id="clip1_1209_991">
<rect width="286.635" height="343.227" fill="white" transform="translate(1686 124)"/>
</clipPath>
</defs>
</svg>
