<svg width="308" height="234" viewBox="0 0 308 234" fill="none" xmlns="http://www.w3.org/2000/svg">
<g clip-path="url(#clip0_1342_446)">
<path d="M15.4873 181.655H233.023C241.205 181.655 247.819 175.069 247.819 166.923V15.4208C247.819 7.27427 241.205 0.688232 233.023 0.688232H15.4873C7.30581 0.688232 0.691467 7.27427 0.691467 15.4208V166.9C0.668421 175.046 7.30581 181.655 15.4873 181.655Z" fill="white"/>
<path d="M15.4874 182.344H233.023C241.574 182.344 248.511 175.436 248.511 166.923V15.421C248.511 6.90731 241.574 0 233.023 0H15.4874C6.93709 0 9.79719e-05 6.90731 9.79719e-05 15.421V166.9C-0.0229486 171.008 1.59027 174.886 4.51718 177.8C7.44409 180.737 11.339 182.344 15.4874 182.344ZM233.023 1.37687C240.79 1.37687 247.128 7.68754 247.128 15.421V166.923C247.128 174.656 240.79 180.967 233.023 180.967H15.4874C11.7077 180.967 8.15852 179.498 5.48513 176.836C2.83478 174.174 1.35984 170.64 1.38289 166.9V15.421C1.38289 7.68754 7.72067 1.37687 15.4874 1.37687H233.023Z" fill="#3FB1B5"/>
<path d="M15.3487 167.568H230.788C233.991 167.568 236.572 164.975 236.572 161.808V16.8693C236.572 13.6795 233.968 11.1094 230.788 11.1094H15.3487C12.1452 11.1094 9.56401 13.7025 9.56401 16.8693V161.785C9.54096 164.975 12.1452 167.568 15.3487 167.568Z" fill="#66B0F0"/>
<path d="M15.3487 168.255H230.788C234.36 168.255 237.264 165.364 237.264 161.807V16.868C237.264 13.3111 234.36 10.4197 230.788 10.4197H15.3487C11.7765 10.4197 8.87267 13.3111 8.87267 16.868V161.784C8.84962 163.505 9.51794 165.134 10.7394 166.35C11.9839 167.567 13.5972 168.255 15.3487 168.255ZM230.788 11.7965C233.599 11.7965 235.881 14.0684 235.881 16.868V161.807C235.881 164.606 233.599 166.878 230.788 166.878H15.3487C13.989 166.878 12.6984 166.35 11.7304 165.387C10.7625 164.423 10.2555 163.161 10.2555 161.807V16.868C10.2555 14.0684 12.537 11.7965 15.3487 11.7965H230.788Z" fill="#66B0F0"/>
<path d="M223.067 25.3347H226.478C227.976 25.3347 229.197 24.1184 229.197 22.6268V19.2306C229.197 17.7389 227.976 16.5227 226.478 16.5227H223.067C221.569 16.5227 220.347 17.7389 220.347 19.2306V22.6268C220.37 24.1414 221.569 25.3347 223.067 25.3347ZM226.478 17.8996C227.215 17.8996 227.814 18.4962 227.814 19.2306V22.6268C227.814 23.3612 227.215 23.9578 226.478 23.9578H223.067C222.329 23.9578 221.753 23.3612 221.73 22.6039V19.2306C221.73 18.4962 222.329 17.8996 223.067 17.8996H226.478V17.8996Z" fill="white"/>
<path d="M207.557 25.3354H210.967C212.466 25.3354 213.687 24.1192 213.687 22.6276V19.2313C213.687 17.7397 212.466 16.5234 210.967 16.5234H207.557C206.059 16.5234 204.837 17.7397 204.837 19.2313V22.6276C204.837 24.1192 206.059 25.3354 207.557 25.3354ZM210.967 17.9003C211.705 17.9003 212.304 18.497 212.304 19.2313V22.6276C212.304 23.3619 211.705 23.9586 210.967 23.9586H207.557C206.819 23.9586 206.22 23.3619 206.22 22.6276V19.2313C206.22 18.497 206.819 17.9003 207.557 17.9003H210.967Z" fill="white"/>
<path d="M192.046 25.3354H195.457C196.955 25.3354 198.177 24.1192 198.177 22.6276V19.2313C198.177 17.7397 196.955 16.5234 195.457 16.5234H192.046C190.548 16.5234 189.327 17.7397 189.327 19.2313V22.6276C189.327 24.1192 190.548 25.3354 192.046 25.3354ZM195.457 17.9003C196.195 17.9003 196.794 18.497 196.794 19.2313V22.6276C196.794 23.3619 196.195 23.9586 195.457 23.9586H192.046C191.286 23.9586 190.71 23.3848 190.71 22.6276V19.2313C190.71 18.497 191.309 17.9003 192.046 17.9003H195.457Z" fill="white"/>
<path d="M53.9131 25.3347H57.324C58.822 25.3347 60.0435 24.1184 60.0435 22.6268V19.2306C60.0435 17.7389 58.822 16.5227 57.324 16.5227H53.9131C52.4151 16.5227 51.1936 17.7389 51.1936 19.2306V22.6268C51.2167 24.1414 52.4151 25.3347 53.9131 25.3347ZM57.324 17.8996C58.0615 17.8996 58.6607 18.4962 58.6607 19.2306V22.6268C58.6607 23.3612 58.0615 23.9578 57.324 23.9578H53.9131C53.1756 23.9578 52.5994 23.3612 52.5764 22.6039V19.2306C52.5764 18.4962 53.1756 17.8996 53.9131 17.8996H57.324V17.8996Z" fill="white"/>
<path d="M38.4028 25.3354H41.8137C43.3117 25.3354 44.5332 24.1192 44.5332 22.6276V19.2313C44.5332 17.7397 43.3117 16.5234 41.8137 16.5234H38.4028C36.9048 16.5234 35.6833 17.7397 35.6833 19.2313V22.6276C35.6833 24.1192 36.9048 25.3354 38.4028 25.3354ZM41.8137 17.9003C42.5512 17.9003 43.1504 18.497 43.1504 19.2313V22.6276C43.1504 23.3619 42.5512 23.9586 41.8137 23.9586H38.4028C37.6653 23.9586 37.0661 23.3619 37.0661 22.6276V19.2313C37.0661 18.497 37.6653 17.9003 38.4028 17.9003H41.8137Z" fill="white"/>
<path d="M22.8925 25.3354H26.3034C27.8015 25.3354 29.0229 24.1192 29.0229 22.6276V19.2313C29.0229 17.7397 27.8015 16.5234 26.3034 16.5234H22.8925C21.3945 16.5234 20.1731 17.7397 20.1731 19.2313V22.6276C20.1731 24.1192 21.3945 25.3354 22.8925 25.3354ZM26.3034 17.9003C27.0409 17.9003 27.6402 18.497 27.6402 19.2313V22.6276C27.6402 23.3619 27.0409 23.9586 26.3034 23.9586H22.8925C22.132 23.9586 21.5559 23.3848 21.5559 22.6276V19.2313C21.5559 18.497 22.1551 17.9003 22.8925 17.9003H26.3034Z" fill="white"/>
<path d="M78.3349 233.313H162.777L146.207 181.657H94.9284L78.3349 233.313Z" fill="white"/>
<path d="M77.3903 234H163.723L146.714 180.968H94.4218L77.3903 234ZM161.833 232.623H79.2802L95.4358 182.344H145.7L161.833 232.623Z" fill="#3FB1B5"/>
<path d="M156.14 212.637L146.207 181.657H94.9285L156.14 212.637Z" fill="#3FB1B5"/>
<path d="M28.0249 59.3213H69.0707C73.2882 59.3213 76.7222 55.9021 76.7222 51.7026V25.3125C76.7222 21.1131 73.2882 17.6938 69.0707 17.6938H28.0249C23.8074 17.6938 20.3734 21.1131 20.3734 25.3125V51.7026C20.3734 55.9021 23.8074 59.3213 28.0249 59.3213ZM69.0707 19.0707C72.5277 19.0707 75.3394 21.8704 75.3394 25.3125V51.7026C75.3394 55.1448 72.5277 57.9444 69.0707 57.9444H28.0249C24.5679 57.9444 21.7562 55.1448 21.7562 51.7026V25.3125C21.7562 21.8704 24.5679 19.0707 28.0249 19.0707H69.0707Z" fill="white"/>
<path d="M32.9796 28.477H64.2998C64.6916 28.477 64.9912 28.1786 64.9912 27.7885C64.9912 27.3984 64.6916 27.1001 64.2998 27.1001H32.9796C32.5878 27.1001 32.2882 27.3984 32.2882 27.7885C32.2882 28.1786 32.5878 28.477 32.9796 28.477Z" fill="white"/>
<path d="M32.9796 35.591H64.2998C64.6916 35.591 64.9912 35.2927 64.9912 34.9025C64.9912 34.5124 64.6916 34.2141 64.2998 34.2141H32.9796C32.5878 34.2141 32.2882 34.5124 32.2882 34.9025C32.2882 35.2927 32.5878 35.591 32.9796 35.591Z" fill="white"/>
<path d="M32.9796 42.7052H64.2998C64.6916 42.7052 64.9912 42.4069 64.9912 42.0168C64.9912 41.6267 64.6916 41.3284 64.2998 41.3284H32.9796C32.5878 41.3284 32.2882 41.6267 32.2882 42.0168C32.2882 42.4069 32.5878 42.7052 32.9796 42.7052Z" fill="white"/>
<path d="M32.9796 49.82H64.2998C64.6916 49.82 64.9912 49.5217 64.9912 49.1316C64.9912 48.7414 64.6916 48.4431 64.2998 48.4431H32.9796C32.5878 48.4431 32.2882 48.7414 32.2882 49.1316C32.2882 49.5217 32.5878 49.82 32.9796 49.82Z" fill="white"/>
<path d="M16.5482 167.567H179.695L189.259 181.221C200.068 196.642 222.907 196.871 234.015 181.657L292.277 101.867C289.834 104.896 278.656 101.523 268.009 94.5467C257.2 87.4558 250.217 78.5291 252.406 75.2246L212.006 126.49L199.63 104.736C196.242 98.9756 190.619 94.845 184.073 93.3305L141.967 84.4496H105.669L65.6603 93.2387C58.7003 94.8221 52.8004 99.3428 49.4586 105.608L16.5482 167.567Z" fill="white"/>
<path d="M211.798 193.614C220.901 193.614 229.198 189.414 234.567 182.048L292.829 102.258L291.723 101.432C289.764 103.842 279.37 101.18 268.377 93.974C263.26 90.6236 258.812 86.7454 255.862 83.0278C253.189 79.6775 252.106 76.9008 252.982 75.5927L251.852 74.7896L212.097 125.252L200.228 104.392C196.748 98.4717 190.917 94.2034 184.234 92.6659L142.036 83.7622H105.599L105.53 83.7851L65.5212 92.5741C58.3767 94.2034 52.2925 98.8389 48.8586 105.287L15.418 168.256H179.348L188.705 181.612C193.983 189.139 202.302 193.522 211.544 193.614C211.613 193.614 211.705 193.614 211.798 193.614ZM290.156 103.589L233.438 181.245C228.276 188.313 220.302 192.328 211.521 192.237C202.74 192.145 194.835 187.991 189.811 180.832L180.039 166.879H17.6766L50.057 105.93C53.3065 99.8257 59.0451 95.4426 65.7978 93.9051L105.737 85.139H141.897L183.934 93.9969C190.249 95.4656 195.757 99.5044 199.03 105.081L211.913 127.73L251.414 77.6121C251.737 79.3332 252.866 81.4903 254.802 83.8998C257.844 87.7092 262.408 91.7021 267.639 95.1214C274.945 99.8945 283.726 103.658 288.957 103.658C289.372 103.658 289.787 103.635 290.156 103.589Z" fill="#3FB1B5"/>
<path d="M61.3269 167.315C61.5804 167.315 61.8108 167.178 61.9491 166.948L73.5415 144.161C73.7028 143.817 73.5876 143.404 73.2419 143.243C72.8962 143.082 72.4814 143.197 72.32 143.541L60.7277 166.329C60.5664 166.673 60.6816 167.086 61.0273 167.247C61.1194 167.292 61.2116 167.315 61.3269 167.315Z" fill="#3FB1B5"/>
<path d="M180.616 169.449C180.731 169.449 180.824 169.426 180.939 169.38C181.284 169.219 181.423 168.783 181.238 168.462L169.761 145.904C169.6 145.56 169.162 145.422 168.839 145.606C168.494 145.767 168.355 146.203 168.54 146.524L180.017 169.082C180.132 169.311 180.363 169.449 180.616 169.449Z" fill="#3FB1B5"/>
<path d="M201.427 140.764C201.635 140.764 201.842 140.672 201.981 140.488L228.277 107.007C228.507 106.709 228.461 106.273 228.161 106.044C227.862 105.814 227.424 105.86 227.193 106.158L200.897 139.639C200.667 139.938 200.713 140.374 201.013 140.603C201.128 140.718 201.289 140.764 201.427 140.764Z" fill="#3FB1B5"/>
<path d="M109.702 108.179L119.819 95.9022C120.073 95.6039 120.027 95.1679 119.727 94.9384C119.428 94.686 118.99 94.7319 118.759 95.0302L109.518 106.206L88.3839 88.3523C88.0843 88.0999 87.6464 88.1458 87.4159 88.4212C87.1624 88.7195 87.2085 89.1555 87.4851 89.385L109.702 108.179Z" fill="#3FB1B5"/>
<path d="M135.975 108.614L160.335 89.4063C160.635 89.1768 160.681 88.7408 160.45 88.4425C160.22 88.1442 159.782 88.0983 159.482 88.3277L136.229 106.663L127.263 95.258C127.033 94.9597 126.595 94.9138 126.296 95.1432C125.996 95.3727 125.95 95.8087 126.18 96.1071L135.975 108.614Z" fill="#3FB1B5"/>
<path d="M281.191 114.26C283.381 114.26 284.533 113.594 285.109 112.86C285.34 112.562 285.294 112.126 284.994 111.896C284.694 111.667 284.256 111.712 284.026 112.011C283.058 113.227 279.901 113.158 275.591 111.873C271.005 110.496 265.473 107.788 260.449 104.461C255.31 101.065 250.839 97.1406 247.866 93.3771C245.169 89.9808 244.086 87.1812 244.962 85.8502C245.169 85.5289 245.077 85.1159 244.755 84.8864C244.432 84.6799 244.017 84.7717 243.787 85.0929C242.542 86.9976 243.602 90.2332 246.76 94.2262C249.825 98.0814 254.411 102.12 259.666 105.585C264.874 109.028 270.382 111.735 275.176 113.181C277.78 113.961 279.739 114.26 281.191 114.26Z" fill="#3FB1B5"/>
<path d="M251.622 91.9777C253.443 91.9777 254.918 90.509 254.918 88.6961C254.918 86.8832 253.443 85.4146 251.622 85.4146C249.802 85.4146 248.327 86.8832 248.327 88.6961C248.327 90.509 249.802 91.9777 251.622 91.9777ZM251.622 86.7914C252.682 86.7914 253.535 87.6405 253.535 88.6961C253.535 89.7517 252.682 90.6008 251.622 90.6008C250.562 90.6008 249.709 89.7517 249.709 88.6961C249.709 87.6405 250.562 86.7914 251.622 86.7914Z" fill="#3FB1B5"/>
<path d="M123.023 108.271C124.843 108.271 126.318 106.802 126.318 104.99C126.318 103.177 124.843 101.708 123.023 101.708C121.202 101.708 119.727 103.177 119.727 104.99C119.727 106.802 121.202 108.271 123.023 108.271ZM123.023 103.085C124.083 103.085 124.936 103.934 124.936 104.99C124.936 106.045 124.083 106.894 123.023 106.894C121.963 106.894 121.11 106.045 121.11 104.99C121.11 103.934 121.963 103.085 123.023 103.085Z" fill="#3FB1B5"/>
<path d="M123.023 129.153C124.843 129.153 126.318 127.685 126.318 125.872C126.318 124.059 124.843 122.59 123.023 122.59C121.202 122.59 119.727 124.059 119.727 125.872C119.727 127.685 121.202 129.153 123.023 129.153ZM123.023 123.967C124.083 123.967 124.936 124.816 124.936 125.872C124.936 126.927 124.083 127.776 123.023 127.776C121.963 127.776 121.11 126.927 121.11 125.872C121.11 124.816 121.963 123.967 123.023 123.967Z" fill="#3FB1B5"/>
<path d="M190.088 182.323L179.694 167.567V182.323H190.088Z" fill="#3FB1B5"/>
<path d="M268.261 93.8583C278.909 100.834 290.086 104.208 292.529 101.179C292.575 101.133 292.599 101.087 292.645 101.018C293.152 100.261 293.106 99.2281 292.645 97.9659C291.054 93.8124 284.486 87.387 276.143 81.9254C269.506 77.5653 262.961 74.5361 258.421 73.5953C255.793 73.0675 253.834 73.2281 252.889 74.2378L252.659 74.5132C250.493 77.8177 257.453 86.7674 268.261 93.8583Z" fill="#FE5244"/>
<path d="M268.262 93.8567C274.323 97.8267 280.569 100.649 285.27 101.751L306.312 72.1939C309.239 68.0633 308.271 62.3493 304.099 59.4349L285.155 46.1711L295.895 27.9734C297.462 25.3344 296.563 21.9152 293.89 20.3776C293.014 19.8728 292.069 19.6433 291.124 19.6433C289.303 19.6433 287.506 20.5383 286.446 22.1905L252.867 74.1904L252.636 74.5576C250.493 77.8162 257.453 86.7658 268.262 93.8567Z" fill="#E57281"/>
<path d="M279.209 72.5399C279.508 72.5399 279.808 72.5169 280.108 72.4481C281.26 72.2186 282.251 71.5302 282.873 70.5663L293.958 54.0439C294.166 53.7226 294.074 53.3095 293.774 53.0801C293.451 52.8735 293.037 52.9653 292.806 53.2636L281.721 69.7861C281.283 70.4516 280.615 70.9105 279.831 71.0712C279.047 71.2318 278.241 71.0712 277.572 70.6352L274.968 68.937C273.585 68.0421 273.194 66.2062 274.069 64.8294L285.8 46.7235C286.007 46.4022 285.915 45.9892 285.593 45.7826C285.27 45.5761 284.855 45.6679 284.648 45.9892L272.917 64.0951C271.626 66.1145 272.226 68.7994 274.231 70.0844L276.835 71.7826C277.526 72.2874 278.356 72.5399 279.209 72.5399Z" fill="#9A3B82"/>
<path d="M287.805 78.0241C289.234 78.0241 290.64 77.3357 291.493 76.0735C291.7 75.7523 291.608 75.3392 291.285 75.1097C290.963 74.9032 290.548 74.995 290.317 75.3162C289.419 76.6702 287.575 77.0603 286.192 76.1883L283.818 74.6967C283.15 74.2607 282.666 73.5951 282.505 72.792C282.343 71.9888 282.482 71.1856 282.919 70.5202C283.127 70.1989 283.035 69.7858 282.712 69.5563C282.389 69.3498 281.975 69.4416 281.744 69.7629C281.099 70.7496 280.868 71.92 281.122 73.0903C281.375 74.2377 282.067 75.2245 283.058 75.867L285.432 77.3586C286.169 77.7946 286.999 78.0241 287.805 78.0241Z" fill="#9A3B82"/>
<path d="M296.24 83.1634C297.623 83.1634 298.983 82.5208 299.835 81.3046L306.127 72.4697C306.358 72.1484 306.265 71.7353 305.966 71.5058C305.666 71.2763 305.228 71.3682 304.998 71.6665L298.706 80.5014C297.761 81.8094 295.987 82.1537 294.65 81.3046L294.604 81.2816L292.414 80.0654C291.723 79.6294 291.262 78.9639 291.078 78.1837C290.893 77.3805 291.055 76.5773 291.493 75.8889L302.347 59.8253C302.555 59.5041 302.486 59.091 302.163 58.8616C301.84 58.655 301.426 58.7239 301.195 59.0451L290.34 75.1087C289.672 76.1184 289.464 77.3117 289.718 78.459C289.972 79.6064 290.663 80.5932 291.677 81.2128L291.7 81.2357L293.889 82.452C294.65 82.9568 295.457 83.1634 296.24 83.1634Z" fill="#9A3B82"/>
<path d="M260.702 62.0746L266.211 53.5609C268.031 50.7383 271.834 49.9581 274.622 51.8398L288.289 61.0649C288.289 61.0649 284.325 68.1558 274.692 62.5335L271.465 67.6509C278.056 71.8045 279.946 80.5476 275.66 87.0419L260.702 62.0746Z" fill="#E57281"/>
<path d="M275.66 87.731C275.89 87.731 276.097 87.6162 276.236 87.4097C278.402 84.1052 279.163 80.1582 278.31 76.3029C277.526 72.6772 275.429 69.5562 272.41 67.445L274.922 63.4521C278.241 65.265 281.26 65.7928 283.933 65.0814C287.321 64.1635 288.842 61.5015 288.911 61.4097L289.211 60.859L275.752 51.4963C274.231 50.4866 272.433 50.1194 270.659 50.4866C268.884 50.8537 267.363 51.8864 266.372 53.4239L260.864 61.9376C260.656 62.2588 260.749 62.6719 261.071 62.8784C261.394 63.0849 261.809 62.9931 262.016 62.6719L267.524 54.1582C268.308 52.942 269.506 52.1159 270.935 51.8405C272.341 51.5422 273.793 51.8405 274.968 52.6437L287.344 61.2491C286.791 61.9605 285.547 63.2456 283.565 63.7734C281.122 64.4389 278.264 63.8193 275.06 61.9605L274.484 61.6163L270.543 67.8811L271.119 68.2482C274.139 70.1529 276.236 73.1361 276.996 76.6242C277.757 80.1123 277.088 83.6921 275.106 86.6753C274.899 86.9966 274.991 87.4097 275.314 87.6392C275.406 87.6851 275.521 87.731 275.66 87.731Z" fill="#9A3B82"/>
<path d="M268.262 93.857C274.323 97.827 280.569 100.65 285.27 101.751L290.502 94.4078C287.575 90.5984 282.344 86.0089 276.144 81.9471C269.507 77.587 262.961 74.5579 258.421 73.617C255.794 73.0892 253.835 73.2498 252.89 74.2595L252.66 74.5349C252.637 74.5808 252.613 74.6038 252.59 74.6497C252.567 74.6726 252.567 74.6955 252.544 74.7414C252.521 74.7873 252.498 74.8103 252.475 74.8562C250.908 78.3672 257.799 86.9727 268.262 93.857Z" fill="#9A3B82"/>
<path d="M105.693 64.2534V84.4246C105.693 90.2763 113.852 95.0036 123.877 95.0036C133.925 95.0036 142.061 90.2763 142.061 84.4246V64.2534H105.693Z" fill="#E57281"/>
<path d="M136.736 91.9056C140.031 90.0009 142.083 87.339 142.083 84.4246V64.2534H105.692V69.8527C105.692 75.6585 109.241 80.8677 114.634 83.0477L136.736 91.9056Z" fill="#9A3B82"/>
<path d="M95.5515 63.0625V63.4067C95.5515 66.8948 98.3862 69.7173 101.889 69.7173H106.061C107.467 75.3625 112.583 79.562 118.713 79.562H129.038C135.145 79.562 140.285 75.3855 141.668 69.7173H145.839C149.342 69.7173 152.177 66.8948 152.177 63.4067V63.0625C152.177 59.5744 149.342 56.7518 145.839 56.7518H142.059V51.7721C142.059 46.4482 138.118 42.0422 132.979 41.3079C131.85 43.1896 128.439 47.6874 121.479 47.4349C118.206 47.3202 115.164 46.7006 112.652 45.9663C109.633 45.0943 106.614 46.9301 105.853 49.7986C105.738 50.4411 105.669 51.0837 105.669 51.7491V56.7288H101.889C98.4092 56.7288 95.5515 59.5744 95.5515 63.0625Z" fill="#E57281"/>
<path d="M102.788 56.7284H105.692V51.198C105.692 50.7161 105.761 50.2342 105.876 49.7982C106.637 46.9297 109.656 45.0939 112.675 45.9659C115.187 46.7002 118.206 47.3198 121.502 47.4346C128.462 47.687 131.873 43.1892 133.002 41.3075C138.142 42.0418 142.083 46.4478 142.083 51.7717V56.7514H145.701C145.701 56.7514 149.849 41.8123 146.738 37.5899C143.673 33.4364 139.985 35.2492 139.985 35.2492C139.985 35.2492 142.198 22.8115 129.845 23.041C117.515 23.2705 101.475 37.5211 100.299 40.1371C98.4555 44.153 102.788 56.7284 102.788 56.7284Z" fill="#9A3B82"/>
<path d="M104.287 64.8056C104.609 64.8056 104.863 64.5532 104.863 64.2319C104.863 61.4781 102.604 59.2292 99.8387 59.2292C99.516 59.2292 99.2625 59.4817 99.2625 59.8029C99.2625 60.1242 99.516 60.3766 99.8387 60.3766C101.982 60.3766 103.71 62.0977 103.71 64.2319C103.71 64.5532 103.964 64.8056 104.287 64.8056Z" fill="#9A3B82"/>
<path d="M143.419 64.8063C143.742 64.8063 143.995 64.5539 143.995 64.2326C143.995 62.0985 145.724 60.3774 147.867 60.3774C148.19 60.3774 148.443 60.1249 148.443 59.8037C148.443 59.4824 148.19 59.23 147.867 59.23C145.102 59.23 142.843 61.4789 142.843 64.2326C142.843 64.5539 143.097 64.8063 143.419 64.8063Z" fill="#9A3B82"/>
<path d="M111.499 52.3444C111.615 52.3444 111.73 52.2985 111.845 52.2296C111.96 52.1378 114.933 50.0496 118.736 51.633C119.036 51.7477 119.358 51.61 119.497 51.3117C119.612 51.0134 119.474 50.6921 119.174 50.5544C114.749 48.7415 111.315 51.174 111.177 51.2888C110.923 51.4723 110.854 51.8395 111.062 52.0919C111.154 52.2526 111.315 52.3444 111.499 52.3444Z" fill="#9A3B82"/>
<path d="M136.482 52.3426C136.666 52.3426 136.827 52.2508 136.943 52.1132C137.127 51.8607 137.081 51.4936 136.827 51.31C136.689 51.1952 133.232 48.7628 128.83 50.5757C128.531 50.6904 128.392 51.0346 128.508 51.3329C128.623 51.6313 128.968 51.7689 129.268 51.6542C133.094 50.0708 136.113 52.2279 136.159 52.2509C136.251 52.2967 136.366 52.3426 136.482 52.3426Z" fill="#9A3B82"/>
<path d="M122.423 71.6664C123.322 71.6664 124.359 71.4828 125.534 71.0468C125.834 70.932 125.995 70.6108 125.88 70.3124C125.765 70.0141 125.442 69.8535 125.143 69.9682C120.303 71.7582 118.713 68.5914 118.643 68.4537C118.505 68.1783 118.16 68.0406 117.883 68.1783C117.606 68.316 117.468 68.6602 117.606 68.9356C117.629 68.9815 118.943 71.6664 122.423 71.6664Z" fill="#9A3B82"/>
<path d="M124.06 67.3511C124.59 67.3511 125.166 67.3511 125.65 67.3052C125.973 67.2823 126.203 67.0069 126.18 66.6856C126.157 66.3643 125.88 66.1349 125.558 66.1578C124.198 66.2496 122.101 66.1578 122.078 66.1578C121.755 66.1349 121.502 66.3873 121.479 66.7086C121.455 67.0298 121.709 67.2823 122.032 67.3052C122.078 67.3052 123.023 67.3511 124.06 67.3511Z" fill="#9A3B82"/>
<path d="M115.21 61.3406C114.574 61.3406 114.058 60.4776 114.058 59.413C114.058 58.3484 114.574 57.4854 115.21 57.4854C115.846 57.4854 116.362 58.3484 116.362 59.413C116.362 60.4776 115.846 61.3406 115.21 61.3406Z" fill="#9A3B82"/>
<path d="M131.734 61.3406C131.097 61.3406 130.582 60.4776 130.582 59.413C130.582 58.3484 131.097 57.4854 131.734 57.4854C132.37 57.4854 132.886 58.3484 132.886 59.413C132.886 60.4776 132.37 61.3406 131.734 61.3406Z" fill="#9A3B82"/>
<path d="M128.992 66.4802H136.252C137.957 66.4802 139.363 65.0803 139.363 63.3822V56.1536C139.363 54.4555 137.957 53.0557 136.252 53.0557H128.992C127.287 53.0557 125.881 54.4555 125.881 56.1536V63.3822C125.858 64.1854 126.181 64.9656 126.757 65.5393C127.356 66.1589 128.14 66.4802 128.992 66.4802ZM136.252 54.2031C137.335 54.2031 138.211 55.0751 138.211 56.1536V63.3822C138.211 64.4607 137.335 65.3328 136.252 65.3328H128.992C128.462 65.3328 127.955 65.1262 127.586 64.7361C127.218 64.369 127.033 63.887 127.033 63.3822V56.1536C127.033 55.0751 127.909 54.2031 128.992 54.2031H136.252Z" fill="white"/>
<path d="M111.224 66.4802H118.483C120.189 66.4802 121.595 65.0803 121.595 63.3822V56.1536C121.595 54.4555 120.189 53.0557 118.483 53.0557H111.224C109.518 53.0557 108.113 54.4555 108.113 56.1536V63.3822C108.113 65.0803 109.518 66.4802 111.224 66.4802ZM118.483 54.2031C119.567 54.2031 120.442 55.0751 120.442 56.1536V63.3822C120.442 64.4607 119.567 65.3328 118.483 65.3328H111.224C110.141 65.3328 109.265 64.4607 109.265 63.3822V56.1536C109.265 55.0751 110.141 54.2031 111.224 54.2031H118.483Z" fill="white"/>
<path d="M121.018 57.8284H126.434V58.9758H121.018V57.8284Z" fill="white"/>
<path d="M134.501 159.351H109.311C106.638 159.351 104.471 157.194 104.471 154.532V141.199C104.471 138.537 106.638 136.38 109.311 136.38H134.501C137.174 136.38 139.341 138.537 139.341 141.199V154.532C139.341 157.194 137.174 159.351 134.501 159.351ZM109.311 137.757C107.398 137.757 105.854 139.295 105.854 141.199V154.532C105.854 156.437 107.398 157.974 109.311 157.974H134.501C136.414 157.974 137.958 156.437 137.958 154.532V141.199C137.958 139.295 136.414 137.757 134.501 137.757H109.311Z" fill="#66B0F0"/>
<path d="M122.54 153.292H114.012C112.653 153.292 111.546 152.19 111.546 150.836V144.893C111.546 143.539 112.653 142.438 114.012 142.438H122.54C123.899 142.438 125.005 143.539 125.005 144.893V150.836C125.005 152.19 123.899 153.292 122.54 153.292Z" fill="#66B0F0"/>
<path d="M130.836 153.133L128.209 151.389C127.495 150.907 127.057 150.081 127.057 149.186V146.57C127.057 145.675 127.495 144.849 128.209 144.367L130.836 142.623C131.459 142.21 132.265 142.669 132.265 143.449V152.33C132.288 153.087 131.459 153.546 130.836 153.133Z" fill="#66B0F0"/>
</g>
<defs>
<clipPath id="clip0_1342_446">
<rect width="308" height="234" fill="white"/>
</clipPath>
</defs>
</svg>
